<svg width="452" height="146" viewBox="0 0 452 146" fill="none" xmlns="http://www.w3.org/2000/svg">
<path d="M205.466 93.0465C207.556 94.6242 211.116 97.0379 215.808 99.6674C220.501 102.297 226.367 105.075 232.866 107.569C239.352 110.064 246.486 112.262 253.484 114.11C260.469 115.997 267.36 117.359 273.415 118.371C301.449 122.955 330.536 121.931 357.532 113.597C384.407 105.277 409.205 89.554 427.248 67.9111C430.12 64.5669 433.545 59.7259 436.431 55.8558C437.186 54.9119 437.847 53.9814 438.48 53.1724C439.114 52.3633 439.721 51.6621 440.287 51.0957C441.407 49.99 442.364 49.4776 442.998 49.8956C444.319 50.7721 444.13 53.6982 442.512 58.2156C440.705 62.6116 437.442 68.6257 432.102 74.8017C419.346 89.9045 403.353 102.041 385.89 110.941C368.414 119.894 349.387 125.477 330.145 128.161C301.921 132.112 273.051 129.172 245.839 121.378C232.233 117.508 218.761 112.37 206.436 104.724C200.301 100.895 194.516 96.3772 189.351 91.1586C184.241 85.9401 179.764 79.8315 176.527 73.1296C173.601 67.129 171.673 60.6563 170.769 54.0084C169.88 47.3605 170.068 40.4967 171.659 33.8353C173.21 27.1739 176.42 20.8362 180.843 15.5097C185.265 10.1563 191.172 6.0435 197.563 3.48142C200.773 2.22734 204.09 1.32383 207.448 0.743993C210.805 0.177637 214.19 -0.0246163 217.548 0.00235305C224.277 0.123715 230.911 1.3508 237.208 3.44092C249.79 7.66162 261.346 15.3074 269.545 26.0951C271.446 28.6707 273.118 31.2867 274.642 34.0241C276.139 36.7615 277.474 39.5933 278.633 42.5194C279.753 45.4456 280.696 48.4527 281.438 51.5272C282.139 54.6152 282.611 57.7572 282.854 60.9395C283.272 67.2908 282.611 73.8713 280.589 80.0069C278.647 86.1694 275.491 91.9003 271.621 96.9166C263.814 107.003 253.525 114.339 242.858 120.164C237.492 123.063 231.976 125.625 226.367 127.796L217.939 130.938L213.718 132.489L209.417 133.797C169.893 146.257 127.565 148.212 87.0298 141.402C77.4691 139.892 65.9398 137.843 55.7049 134.903C53.5608 134.377 51.1471 133.527 48.5311 132.664C45.9285 131.788 43.1372 130.857 40.3594 129.927C34.8711 127.864 29.4772 125.585 25.4723 123.872C22.1011 122.187 18.6221 120.42 15.224 118.991C14.2531 118.573 13.3226 118.168 12.4461 117.791C11.5831 117.373 10.774 116.941 10.0054 116.55C8.46812 115.741 7.11967 114.999 5.9465 114.325C3.60017 112.977 1.95504 111.871 0.997634 110.995C-0.903703 109.242 -0.0541797 108.392 3.26305 108.19C4.71939 108.095 3.96426 106.558 7.73996 107.974C7.90178 108.028 8.21192 108.149 8.34677 108.203C19.8627 112.222 30.7987 117.777 42.4764 122.173C100.056 142.427 164.917 142.036 221.728 119.8C226.137 118.222 230.331 116.308 234.498 114.271C238.651 112.249 242.683 110.01 246.499 107.516C250.342 105.034 254.01 102.337 257.328 99.3034C260.631 96.2694 263.733 93.0195 266.227 89.3921C268.736 85.7783 270.745 81.8947 272.174 77.7954L273.078 74.6804C273.388 73.6421 273.536 72.5768 273.765 71.525C274.075 69.3944 274.332 67.2369 274.318 65.0658C274.399 60.7238 273.806 56.3413 272.673 52.0936C271.567 47.8324 269.936 43.6792 267.859 39.7686C266.753 37.6111 265.432 35.5479 264.083 33.5522C262.681 31.6374 261.225 29.7495 259.566 28.0369C256.303 24.5309 252.567 21.4564 248.536 18.6921L248.67 18.7865C244.382 16.0221 239.717 13.8376 234.876 12.2464C230.048 10.6148 225.018 9.67087 220.015 9.2933C215.282 8.96967 210.509 9.33371 205.978 10.426C201.474 11.5856 197.159 13.4331 193.518 16.1974C191.644 17.5189 190.012 19.1371 188.461 20.8092C186.965 22.5487 185.643 24.4365 184.483 26.4188C182.191 30.4102 180.694 34.8872 179.993 39.5394C178.55 48.8573 180.303 58.701 184.052 67.3717C185.94 71.7272 188.353 75.7726 191.226 79.4539C194.138 83.1757 197.415 86.5873 200.989 89.6349C201.528 90.1338 202.256 90.6328 203.025 91.1991C203.726 91.8059 204.562 92.4262 205.466 93.0465Z" fill="#8353E2"/>
<path d="M451.048 59.536C451.223 60.453 451.614 63.7163 451.776 65.8064C452.235 70.6339 451.897 75.6368 449.942 80.1406C449.632 80.8419 449.322 82.0824 446.369 81.2868C443.294 80.4642 441.676 79.3181 442.027 78.2933C442.836 75.7851 443.888 73.1286 443.375 70.4317C442.647 66.5616 442.62 62.7185 441.501 59.0102C441.325 58.3899 441.123 57.7696 440.921 57.1628L440.8 56.7717L440.759 56.6773L440.692 56.502C440.611 56.2728 440.489 55.9896 440.22 55.9492C440.044 55.9357 439.883 56.0435 439.761 56.1649C439.707 56.2188 439.653 56.2998 439.613 56.3672L439.559 56.4751C439.545 56.5021 439.559 56.502 439.532 56.529L437.226 58.4708C435.864 59.6305 434.489 60.7632 433.005 61.7476C430.457 63.4466 427.477 64.5119 424.78 65.9952C424.146 66.3458 423.741 67.3032 423.067 67.7077C422.501 68.0449 421.584 68.6383 420.896 68.7866C420.6 68.854 420.276 68.8944 420.114 69.1371C419.359 70.2698 418.469 69.5417 416.864 66.4268C416.514 65.7391 415.853 64.9704 415.812 64.3636C415.812 64.3366 415.799 64.2826 415.799 64.2557C415.381 61.9903 416.716 62.2735 417.471 61.6936C421.206 58.8619 425.063 56.2188 428.879 53.4949L432.426 51.0407C433.019 50.6227 433.599 50.2047 434.165 49.7597L435.298 48.8832C435.824 48.4787 436.35 48.0606 436.903 47.6831C438.076 46.847 439.384 45.9031 440.719 46.0919H440.692C441.406 45.984 442.148 45.9705 442.89 46.0784C443.591 46.1997 444.292 46.4155 444.899 46.7931C446.072 47.4943 447.043 48.5056 447.812 49.7732C448.216 50.38 448.486 51.1351 448.769 51.8633C449.039 52.578 449.362 53.3736 449.592 54.0209C450.144 55.7334 450.589 57.4055 450.792 59.0776C450.832 59.199 451.007 59.3473 451.048 59.536Z" fill="#8353E2"/>
</svg>
