<svg width="425" height="140" viewBox="0 0 425 140" fill="none" xmlns="http://www.w3.org/2000/svg">
<path d="M203.595 59.0512C200.119 60.7447 197.088 63.4682 194.976 66.7859C192.781 70.0592 191.491 73.885 191.093 77.7192C191.046 78.1717 191.065 78.6271 191.036 79.0852C191.026 79.5405 190.982 79.9847 191.031 80.4678C191.088 81.4118 191.127 82.3502 191.291 83.2914C191.52 85.1793 192.018 87.0423 192.61 88.8802C193.875 92.545 195.712 96.1071 198.056 99.4082C200.377 102.72 203.102 105.822 206.12 108.668C207.608 110.111 209.205 111.452 210.843 112.76C212.435 114.118 214.181 115.295 215.863 116.553C219.346 118.904 222.954 121.103 226.738 122.991C230.536 124.837 234.41 126.562 238.442 127.914C242.459 129.28 246.543 130.465 250.713 131.321L252.272 131.659L253.841 131.937C254.892 132.115 255.936 132.317 256.981 132.484C259.09 132.759 261.192 133.086 263.316 133.256C264.176 133.336 265.042 133.4 265.91 133.428L268.509 133.464L268.353 133.442C273.479 133.711 278.625 133.675 283.744 133.328C288.863 132.954 293.943 132.274 298.966 131.319C309.016 129.428 318.774 126.271 327.976 122.104C333.294 119.675 338.418 116.882 343.284 113.723L350.465 108.759L357.316 103.378C366.233 95.9487 374.236 87.5144 381.369 78.4191C395.635 60.2008 406.42 39.5032 414.916 18.006C415.627 16.343 416.304 14.3301 417.099 12.3089C417.868 10.2794 418.709 8.23607 419.429 6.39258C420.912 2.71947 422.351 0.00413299 423.306 0.426162C425.241 1.27854 424.102 9.69923 419.432 21.6569L417.275 27.0597L414.952 32.4097L413.785 35.0834L412.535 37.7209L410.024 42.9931C406.485 49.9284 402.826 56.8165 398.626 63.4047C396.628 66.7585 394.373 69.9486 392.19 73.1885L391.37 74.4046L386.999 80.2877C386.422 81.0761 385.835 81.8618 385.204 82.6059C382.714 85.6293 380.326 88.7221 377.637 91.5817C376.313 93.0226 375.054 94.5302 373.685 95.9295L369.547 100.108C361.372 108.176 352.214 115.3 342.26 121.383C332.216 127.354 321.244 131.849 309.824 134.928C298.411 137.99 286.52 139.609 274.555 139.581C262.598 139.555 250.542 137.839 239.008 134.208C228.668 130.937 218.745 126.112 210.041 119.629C205.697 116.408 201.54 112.871 197.911 108.823C194.254 104.803 191.058 100.333 188.672 95.4046C187.5 92.9336 186.533 90.3626 185.836 87.7029C185.19 85.032 184.811 82.3084 184.77 79.5542C184.761 73.9321 186.47 68.5155 189.462 63.8818C190.927 61.5413 192.798 59.4396 194.942 57.5989C195.986 56.6467 197.194 55.8749 198.382 55.0781L200.296 54.0536C200.921 53.6927 201.643 53.4817 202.314 53.1902C207.793 51.0692 214.389 51.1082 219.937 53.7847C222.534 55.0119 224.862 56.7221 226.783 58.7156C228.703 60.7091 230.261 62.9635 231.496 65.3262C233.952 70.0654 235.164 75.2351 235.239 80.4019C235.297 85.5631 234.179 90.791 231.571 95.4275C231.244 96.0022 230.906 96.5824 230.521 97.1294L229.959 97.9595L229.354 98.7119C228.531 99.6975 227.782 100.752 226.846 101.638C225.946 102.563 225.06 103.501 224.053 104.309L222.584 105.567C222.073 105.964 221.543 106.327 221.026 106.713C216.842 109.731 212.164 111.996 207.341 113.684C202.508 115.378 197.524 116.511 192.51 117.285C187.499 118.051 182.439 118.454 177.406 118.59L169.878 118.603L166.112 118.601C164.858 118.606 163.6 118.473 162.347 118.415C145.018 117.62 127.766 114.549 111.159 109.538C94.5336 104.521 78.5277 97.5823 63.5196 89.017C62.629 88.5144 61.7384 88.0119 60.8391 87.5066C59.9344 87.018 59.0482 86.471 58.1761 85.9102C56.4178 84.8024 54.6482 83.7002 52.882 82.6173C49.2829 80.5406 45.9198 78.2361 42.5394 76.3204L42.6347 76.4147C39.003 73.4384 35.0143 70.3122 30.9475 67.2804C28.8808 65.8089 27.0404 64.0791 25.2314 62.4327C23.4392 60.7641 21.7643 59.0594 20.3163 57.3074C18.1275 55.0364 15.9556 52.6514 13.742 50.5191C13.1082 49.9056 12.5041 49.3198 11.9297 48.7617C11.3694 48.1898 10.8783 47.6123 10.4028 47.0764C9.45192 46.0047 8.6138 45.033 7.89725 44.164C6.4615 42.4343 5.48039 41.1238 4.96184 40.2076C3.91598 38.3724 4.70025 38.117 7.1417 39.1665C8.21017 39.6246 7.96374 38.3365 10.4336 40.6326C10.4397 40.6437 10.5699 40.8407 10.5699 40.8407L10.5324 40.7464C12.3862 42.2512 14.1513 43.9753 15.9898 45.7411C17.8933 47.4541 19.7772 49.2894 21.654 51.1773C22.6008 52.1102 23.5089 53.1042 24.4785 54.0259C25.4708 54.9366 26.4605 55.8555 27.4441 56.7634C29.4227 58.5737 31.3565 60.4338 33.3458 62.1191C53.0901 78.4388 75.7589 91.552 100.122 100.115C106.158 102.405 112.393 104.099 118.592 105.873L128.007 108.08C129.574 108.486 131.165 108.725 132.751 109.008L137.513 109.849C139.098 110.105 140.684 110.452 142.279 110.646L147.073 111.204C150.274 111.56 153.455 112.037 156.669 112.14C159.873 112.304 163.083 112.57 166.294 112.654L175.911 112.643C183.748 112.535 191.524 111.738 198.954 109.969C206.376 108.226 213.423 105.264 219.098 100.766C219.777 100.175 220.485 99.6112 221.149 99.006L223.035 97.1014C224.173 95.7299 225.364 94.3751 226.197 92.9342C227.966 90.0301 228.928 86.6319 229.282 83.1781C229.603 79.7049 229.26 76.14 228.293 72.7528C227.302 69.3768 225.706 66.1478 223.464 63.5297C221.017 60.645 217.771 58.6071 214.215 57.8824L212.871 57.6575L211.5 57.5437L210.134 57.5687L209.449 57.5715C209.221 57.5909 208.995 57.6381 208.776 57.6603L207.42 57.8352L206.097 58.1766L205.429 58.3404L204.783 58.5847L203.483 59.0706C203.518 59.0817 203.561 59.0679 203.595 59.0512Z" fill="#8353E2"/>
<path d="M2.11618 36.3627C2.1563 35.4771 2.15284 34.4859 2.26909 33.6336L2.58033 31.468C4.92931 32.8091 7.41107 34.3388 9.66228 35.5022C9.80315 35.5743 9.98101 35.5299 10.1404 35.5438L10.1282 35.5216L11.8886 36.41C12.3226 36.621 12.7706 36.8182 13.2265 36.9903C15.3453 37.7816 17.4494 38.4674 19.4956 39.6391C19.8159 39.814 20.4014 39.9723 19.9645 41.8963C19.5099 43.9064 18.8074 44.9669 18.144 44.7198C16.5626 44.1173 15.1132 43.19 13.4453 42.9817C12.2151 42.8206 11.0563 42.4347 9.9327 41.9683C9.65179 41.8517 9.37353 41.7267 9.09527 41.6018L8.43288 41.2908C8.24825 41.2048 8.13975 41.1521 8.04958 41.1326C7.8955 41.1021 7.75463 41.0299 7.60765 40.9466C7.55663 41.0771 7.54391 41.3297 7.57595 41.5324C7.59593 41.6213 7.63343 41.7156 7.67884 41.7851L7.69981 41.81L7.70478 41.9766L7.7094 42.3264L7.71602 43.0344C7.7266 43.9728 7.70829 44.9112 7.5823 45.8246C7.35789 47.4127 6.61954 48.9203 6.21215 50.4778C6.11604 50.8415 5.95419 51.2302 6.69337 51.6939L6.72227 51.6939C5.7339 51.9854 7.40961 52.7461 5.97387 52.9599C5.92021 53.0987 5.76237 53.2319 5.81901 53.3874C6.07697 54.0926 5.31581 54.1537 3.00135 53.5845C2.49189 53.4596 1.81152 53.4179 1.47562 53.2013L1.51593 53.1958L1.47826 53.193C-0.0504511 52.5155 0.780537 52.0824 0.812072 51.5882C0.970582 49.145 1.27095 46.7102 1.51352 44.2753L1.77936 42.0403C1.82295 41.66 1.84456 41.3186 1.87246 40.8966C1.93323 40.2191 1.9704 39.525 1.99797 38.8003C2.02125 38.0285 1.84354 37.0096 2.11271 36.3433L2.11618 36.3627Z" fill="#8353E2"/>
</svg>
