<svg width="1571" height="353" viewBox="0 0 1571 353" fill="none" xmlns="http://www.w3.org/2000/svg">
<path fill-rule="evenodd" clip-rule="evenodd" d="M0 176.5L65.4583 147.083C130.917 117.667 261.833 58.8333 392.75 88.25C523.667 117.667 654.583 235.333 785.5 241.217C916.417 247.1 1047.33 141.2 1178.25 82.3667C1309.17 23.5333 1440.08 11.7667 1505.54 5.88333L1571 0V353H1505.54C1440.08 353 1309.17 353 1178.25 353C1047.33 353 916.417 353 785.5 353C654.583 353 523.667 353 392.75 353C261.833 353 130.917 353 65.4583 353H0V176.5Z" fill="#8353E2"/>
</svg>
