<svg width="105" height="51" viewBox="0 0 105 51" fill="none" xmlns="http://www.w3.org/2000/svg">
<path d="M48.3649 48.9114C51.9139 48.9114 55.4553 48.7404 58.9817 48.4711C65.6543 47.9295 72.2742 46.8872 78.691 45.259C81.9125 44.4734 85.0475 43.5231 88.0244 42.3257C90.9862 41.1156 93.8013 39.6553 96.146 37.7958C96.3831 37.6057 96.6164 37.4126 96.8384 37.2098L97.4669 36.5794L97.4255 36.6111C98.7201 35.4105 99.8191 34.0674 100.636 32.6198C101.456 31.1753 102.006 29.6199 102.28 28.017C102.8 24.8049 102.235 21.4693 100.854 18.4092C100.045 16.6385 98.9535 14.9596 97.6174 13.4391C96.2852 11.9217 94.682 10.5406 92.9357 9.32735C89.4244 6.89453 85.2695 5.12058 80.8926 3.93268C76.5082 2.73527 71.9054 2.15554 67.2538 1.99715C62.6022 1.8356 57.9166 2.08589 53.2424 2.51671C50.3182 2.77013 45.3655 3.45434 45.3241 2.73526C45.3052 2.36147 46.1031 1.94967 47.5596 1.55687C49.0123 1.16407 51.1198 0.793465 53.7091 0.546381C59.9715 -0.0396515 66.3731 -0.264595 72.7033 0.432308C75.8721 0.758585 78.9958 1.36681 82.0329 2.19042C83.5421 2.62757 85.0437 3.08685 86.4927 3.65705C87.2265 3.91997 87.9303 4.23992 88.6491 4.53452C89.0029 4.68974 89.3491 4.86081 89.6991 5.02236C90.0491 5.18392 90.3991 5.34867 90.7341 5.52923C94.7347 7.56609 98.3099 10.2967 100.847 13.6925C103.368 17.0693 104.847 21.0005 104.99 25.014C105.058 27.0192 104.779 29.0433 104.098 30.982C103.421 32.9238 102.326 34.7643 100.926 36.3925C99.5255 38.0271 97.8245 39.4589 95.9616 40.6816C94.1024 41.9076 92.0927 42.9434 90.0153 43.8399C86.2857 45.4554 82.3378 46.6085 78.3748 47.5651C74.4044 48.5281 70.3662 49.2885 66.2904 49.846C58.1387 50.961 49.8327 51.2651 41.5944 50.7709C37.7256 50.5365 33.8681 50.1374 30.0481 49.5513C26.2056 48.959 22.4083 48.091 18.7502 46.8587C16.9212 46.2474 15.1297 45.5314 13.4023 44.7047C11.6711 43.8842 10.0114 42.9371 8.46464 41.8569C6.91033 40.783 5.49528 39.5476 4.26462 38.1792C3.03773 36.8075 2.03288 35.2807 1.29901 33.6651C0.0457731 30.8775 -0.323067 27.7668 0.290378 24.8429C0.862426 21.9033 2.29631 19.1473 4.21944 16.724C6.16515 14.307 8.60767 12.191 11.4152 10.4994C12.819 9.65361 14.3093 8.91237 15.8749 8.29149C16.2663 8.13944 16.6653 7.99368 17.0604 7.85113L18.2647 7.47102C19.0588 7.19859 19.8868 7.01491 20.7035 6.7995C23.8046 6.03291 27.1954 5.6971 30.2175 5.35182L30.1648 5.34231C30.6315 5.37398 31.1019 5.39297 31.5836 5.3993C32.0616 5.41198 32.5471 5.42785 33.0401 5.44053C34.0224 5.44053 35.0159 5.49438 36.0132 5.52289C37.9928 5.6401 39.9724 5.82696 41.6584 6.36231H41.6622C41.9671 6.41616 42.2719 6.47002 42.5767 6.52387L43.4837 6.71396C44.0896 6.83434 44.688 6.95468 45.2751 7.07188C47.9735 7.57872 49.6182 8.09509 50.3445 8.44671C51.0709 8.80466 50.8676 9.03277 49.8515 9.18482C49.4036 9.25134 49.7574 9.59658 48.4703 9.37484C48.4666 9.37484 48.38 9.33686 48.38 9.33686L48.4101 9.35898C46.566 9.18476 44.5977 8.78881 42.5654 8.43403C40.5369 8.08241 38.4482 7.70544 36.4347 7.55338C31.5084 7.15108 26.5067 7.33799 21.776 8.4372L20.026 8.8965C19.4427 9.05489 18.8819 9.26078 18.3099 9.43818C17.1733 9.81197 16.0932 10.2682 15.0432 10.7782C12.9469 11.8077 11.0276 13.0938 9.33401 14.5605C7.64044 16.0271 6.19151 17.6934 5.05494 19.4895C3.91461 21.2824 3.10923 23.2242 2.74793 25.2135C2.38288 27.1997 2.46192 29.2366 3.0415 31.1753C3.63612 33.1171 4.64848 34.9702 6.05978 36.6016C7.77216 38.6194 10.0077 40.3237 12.4878 41.7397C14.9717 43.1557 17.6964 44.2929 20.5228 45.2115C23.3529 46.1302 26.2884 46.8302 29.2691 47.3466L30.3906 47.5303L31.5234 47.6918C32.2799 47.7964 33.0326 47.9136 33.789 48.0054C35.3057 48.1765 36.8224 48.3603 38.3466 48.4743C41.681 48.7499 45.0343 48.8322 48.4289 48.9051L48.3649 48.9114Z" fill="#8353E2"/>
</svg>
