<svg width="340" height="135" viewBox="0 0 340 135" fill="none" xmlns="http://www.w3.org/2000/svg">
<path d="M97.0462 25.7645C93.1035 26.3116 86.6573 27.2325 78.8202 28.7096C71.0073 30.2141 61.7431 32.2565 52.5272 35.3931C43.3356 38.4932 34.1198 42.7694 26.8633 48.1034C23.235 50.775 20.0542 53.7109 17.4418 56.7472C14.8416 59.7925 12.8097 62.9201 11.3221 65.9381C7.87528 72.9042 6.91983 80.5358 9.508 87.5201C10.8384 91.0123 12.9065 94.3404 15.6035 97.3949C18.2642 100.468 21.699 103.194 25.4482 105.665C32.9708 110.625 42.0657 114.354 51.5355 117.354C56.3007 118.822 61.1867 120.117 66.1454 121.247C71.2008 122.259 76.1957 123.436 81.3237 124.238C122.069 131.368 165.113 131.095 205.749 123.417C207.346 123.162 209.063 122.779 210.853 122.405C212.643 122.031 214.518 121.639 216.404 121.247C218.315 120.883 220.178 120.39 222.04 119.98C223.891 119.551 225.705 119.141 227.434 118.776C234.268 117.172 239.613 116.096 239.94 117.135C240.266 118.193 237.049 120.035 230.966 122.423C227.882 123.527 224.072 124.74 219.622 125.98C215.11 127.074 210.031 128.396 204.298 129.353C176.675 134.386 147.975 136.037 119.662 134.377C105.512 133.529 91.4587 131.851 77.6833 129.371L75.0951 128.934L72.5312 128.414L67.4032 127.365C63.9926 126.691 60.57 125.907 57.2077 125.04C50.4712 123.317 43.8436 121.265 37.482 118.767C35.1357 117.892 32.8862 116.843 30.6125 115.84C28.4113 114.737 26.1739 113.679 24.0816 112.439C19.8486 110.032 15.8333 107.315 12.4227 104.151C11.9873 103.759 11.5277 103.385 11.1286 102.984L9.94338 101.735C9.16934 100.896 8.31065 100.103 7.66965 99.1911C6.99237 98.3066 6.27881 97.4223 5.62572 96.5196L3.92046 93.7112C1.85234 89.909 0.485687 85.8334 0.134954 81.7121C-0.675362 73.4331 2.22726 65.245 7.12543 58.0784C9.58057 54.4768 12.5678 51.1033 15.9663 47.9941C19.389 44.9031 23.2955 42.0766 27.468 39.5966C35.813 34.6364 45.2223 30.8434 54.9461 27.9712C64.682 25.09 74.7081 23.0019 84.7705 21.3242C89.8017 20.4672 94.8572 19.8107 99.9005 19.0721C102.416 18.6801 104.968 18.4247 107.496 18.1147L115.115 17.2121C125.298 16.2 135.518 15.2972 145.774 14.8231C182.601 12.9357 219.767 14.7503 255.977 20.2119C260.488 20.9596 265.011 21.6525 269.498 22.4457C273.973 23.3119 278.472 24.0686 282.923 25.0168L289.587 26.4301L292.925 27.1414L296.287 27.9347C300.762 29.038 305.176 30.3234 309.494 31.8644C313.799 33.4144 318.008 35.2016 321.915 37.4081C325.821 39.6147 329.437 42.2225 332.388 45.2952C338.351 51.4225 341.06 59.4006 339.621 66.932C338.339 74.0075 333.864 80.6361 327.321 85.6965C321.008 90.6202 313.425 94.541 305.539 97.6137C301.596 99.1546 297.557 100.55 293.517 101.753L287.458 103.595L284.422 104.516C283.407 104.817 282.379 105.072 281.351 105.355C273.175 107.607 264.866 109.622 256.461 111.345C222.851 118.248 187.656 120.819 152.885 118.84C137.889 117.974 122.952 116.342 108.294 113.752C104.629 113.114 101.001 112.357 97.3607 111.655C93.7203 110.98 90.092 110.123 86.4758 109.239C82.8596 108.345 79.2676 107.352 75.7361 106.212C72.2046 105.072 68.6973 103.823 65.323 102.355C61.9487 100.887 58.659 99.264 55.575 97.3949C52.5031 95.5166 49.6488 93.4104 47.0848 91.0945L45.2344 89.3163C44.6539 88.6963 44.1097 88.0582 43.5533 87.4382L42.7188 86.4899C42.4648 86.1616 42.2351 85.8333 41.9811 85.5051L40.5419 83.5174L39.3203 81.4568L38.7156 80.4263L38.2198 79.3596C37.8932 78.6484 37.5425 77.9463 37.2401 77.2351L36.4661 75.0651C32.6806 63.4216 34.9906 51.0484 42.0899 40.5264C43.7227 38.019 45.7787 35.5755 48.0161 33.1045C50.314 30.67 52.9022 28.2902 55.7201 26.029C61.4044 21.543 68.02 17.5948 74.8533 14.5312C80.465 11.9509 88.3746 9.06064 96.6108 6.94529C104.823 4.8117 113.277 3.40756 119.59 2.63254C125.044 1.95781 130.729 1.47451 136.062 0.982145C148.338 -0.112004 156.115 -0.139482 159.779 0.170527C163.456 0.507889 163.045 1.30128 159.029 2.58691C157.263 3.15222 159.356 3.76303 153.526 4.31922C153.285 4.34657 152.801 4.39226 152.583 4.41961C143.766 5.46817 134.889 6.24309 126.036 7.27341C117.195 8.33109 108.318 9.64409 99.8158 11.8597C89.4026 14.5495 79.4733 18.3335 70.7291 23.2754C61.9971 28.2082 54.4744 34.3445 49.286 41.4747C44.158 48.5502 41.5578 56.7199 41.8843 64.7618C42.1867 72.8038 45.6335 80.7456 52.2612 86.9001C53.8818 88.4684 55.7685 89.8726 57.7036 91.2403C59.7234 92.5533 61.7915 93.8207 64.041 94.9331C68.4796 97.2126 73.3415 99.1 78.409 100.687C83.4765 102.282 88.7133 103.622 94.071 104.78C96.7318 105.382 99.465 105.865 102.174 106.385C104.895 106.878 107.58 107.461 110.326 107.89C132.18 111.509 154.554 113.442 176.953 113.296C204.431 113.306 231.885 110.315 258.335 104.771C271.542 101.972 284.495 98.3432 296.976 94.2492C303.108 92.1156 308.962 89.6537 314.211 86.6357C316.835 85.1312 319.302 83.4901 321.588 81.7212C323.826 80.0162 325.736 78.1377 327.297 76.0771C330.743 71.6002 332.413 66.3848 331.929 61.3153C331.832 60.6861 331.808 60.048 331.638 59.428L331.445 58.4888L331.143 57.5679C330.913 56.957 330.792 56.3187 330.502 55.7261L329.655 53.939C328.361 51.6048 326.607 49.4072 324.467 47.3557L324.624 47.4926C319.919 43.3531 313.618 40.1162 306.724 37.6543C303.29 36.3961 299.698 35.3292 296.033 34.39C294.207 33.8977 292.344 33.4874 290.482 33.0497L284.737 31.8372C255.783 25.6462 225.221 21.8347 194.78 20.7314C164.351 19.5917 134.079 20.9504 105.573 24.5155C103.311 24.7252 100.336 25.3087 97.0462 25.7645Z" fill="#8353E2"/>
</svg>
